<svg width="1012.29306" height="636.61261" xmlns="http://www.w3.org/2000/svg">
 <title>fill_forms</title>

 <g>
  <title>background</title>
  <rect fill="none" id="canvas_background" height="602" width="802" y="-1" x="-1"/>
 </g>
 <g>
  <title>Layer 1</title>
  <path id="svg_1" fill="#a0616a" d="m378.79306,266.4343s83,4 88,33s-97,3 -97,3l9,-36z"/>
  <path id="svg_2" fill="#575a89" d="m247.79306,174.4343s14,4 25,28s33,46 33,46l89,17l-15,45l-85,-11l-53,-30l6,-95z"/>
  <path id="svg_3" opacity="0.1" d="m247.79306,174.4343s14,4 25,28s33,46 33,46l89,17l-15,45l-85,-11l-53,-30l6,-95z"/>
  <rect id="svg_6" fill="#3f3d56" height="301" width="789" y="333.93432" x="30.29306"/>
  <polygon id="svg_7" fill="#a0616a" points="115.793 128.434 124.793 185.434 186.793 188.434 179.793 104.434 115.793 128.434"/>
  <path id="svg_8" fill="#2f2e41" d="m50.29306,508.9343l-3,126l94,0l14,-50l11,50l98,0s2,-144 -9,-145s-205,19 -205,19z"/>
  <circle id="svg_9" fill="#a0616a" r="54" cy="89.43432" cx="135.79306"/>
  <path id="svg_10" fill="#575a89" d="m44.79306,514.4343l28,-138l-37,-183l85.21434,-31.97582l41.78566,-5.02418l21.00654,-3.92147l14.99346,3.92147s60,15 63,26s-12,101 -12,101l-14,74l31,133s-129,44 -220,24l-2,0z"/>
  <polygon id="svg_11" opacity="0.1" points="82.293 243.934 82.293 280.934 200.285 281.095 88.293 268.934 82.293 243.934"/>
  <polygon id="svg_12" opacity="0.1" points="72.159 346.12 220.293 324.934 72.159 366.89 72.159 346.12"/>
  <polygon id="svg_13" opacity="0.1" points="307.293 248.934 291.412 306.159 318.293 250.822 307.293 248.934"/>
  <path id="svg_14" fill="#2f2e41" d="m180.234,35.27792l9.93007,-3.97545s-20.76282,-22.85871 -49.65048,-20.8709l8.12483,-8.94481s-19.86015,-7.95077 -37.9148,12.92013c-9.491,10.97136 -20.47216,23.86767 -27.31776,38.39517l-10.63442,0l4.4384,9.77288l-15.53444,9.77288l15.94458,-1.75541a54.612,54.612 0 0 0 -0.43268,16.21013a20.97371,20.97371 0 0 0 7.68035,13.72061l0,0s12.3151,-25.49107 12.3151,-29.46652l0,9.93858s9.93007,-8.94467 9.93007,-14.90777l5.41635,6.957l2.70817,-10.93248l33.40108,10.93248l-5.41635,-8.94468l20.76283,2.98155l-8.12483,-10.93248s23.471,12.92013 24.37393,23.85261c0.90262,10.93232 7.77269,21.29141 7.77269,21.29141s18.40655,-51.10715 -7.77269,-66.01493z"/>
  <rect id="svg_15" fill="#d0cde1" height="401" width="384" y="234.93432" x="233.29306"/>
  <rect id="svg_16" fill="#7957d5" height="40" width="284" y="322.93432" x="273.29306"/>
  <rect id="svg_17" fill="#7957d5" height="20" width="185.99441" y="428.93432" x="322.11632"/>
  <rect id="svg_18" fill="#7957d5" height="20" width="185.99441" y="463.93432" x="322.47538"/>
  <rect id="svg_19" fill="#7957d5" height="20" width="92.9972" y="498.93432" x="322.83445"/>
  <rect id="svg_20" fill="#7957d5" height="20" width="43" y="599.93432" x="519.29306"/>
  <path id="svg_21" fill="#a0616a" d="m205.79306,285.4343s87,-13 100,6s-92,29 -92,29l-8,-35z"/>
  <path id="svg_22" fill="#575a89" d="m45.79306,192.4343l-6.26587,0a10.21521,10.21521 0 0 0 -6.9558,2.707c-5.94794,5.52277 -18.52459,19.7749 -23.77833,45.293c-7,34 -19,100 8,105s204,-19 204,-19l-13,-46l-128,1s2,-22 -2,-36s-32,-53 -32,-53z"/>
  <rect id="svg_28" fill="#3f3d56" height="2.78201" width="816.59467" y="633.8306" x="16.49572"/>
 </g>
</svg>